<svg xmlns="http://www.w3.org/2000/svg" viewBox="0 0 512 512" fill="none">
  <defs>
    <linearGradient id="nb-bg" x1="72" y1="56" x2="440" y2="456" gradientUnits="userSpaceOnUse">
      <stop stop-color="#252522"/>
      <stop offset="1" stop-color="#171714"/>
    </linearGradient>
    <radialGradient id="nb-glow" cx="0" cy="0" r="1" gradientUnits="userSpaceOnUse" gradientTransform="translate(256 244) rotate(90) scale(190 170)">
      <stop stop-color="#d8cff8"/>
      <stop offset="0.28" stop-color="#a894ee"/>
      <stop offset="0.55" stop-color="#8a78e6"/>
      <stop offset="0.82" stop-color="#6b5cc6" stop-opacity="0.55"/>
      <stop offset="1" stop-color="#8a78e6" stop-opacity="0"/>
    </radialGradient>
    <radialGradient id="nb-cloud-a" cx="0" cy="0" r="1" gradientUnits="userSpaceOnUse" gradientTransform="translate(228 268) scale(128)">
      <stop stop-color="#b5a6f0" stop-opacity="0.95"/>
      <stop offset="1" stop-color="#8a78e6" stop-opacity="0"/>
    </radialGradient>
    <radialGradient id="nb-cloud-b" cx="0" cy="0" r="1" gradientUnits="userSpaceOnUse" gradientTransform="translate(302 228) scale(108)">
      <stop stop-color="#7d6dd8" stop-opacity="0.8"/>
      <stop offset="1" stop-color="#5c4eb8" stop-opacity="0"/>
    </radialGradient>
    <filter id="nb-soft" x="-30%" y="-30%" width="160%" height="160%">
      <feGaussianBlur stdDeviation="10"/>
    </filter>
  </defs>
  <rect width="512" height="512" rx="118" fill="url(#nb-bg)"/>
  <rect x="1.5" y="1.5" width="509" height="509" rx="116.5" stroke="rgba(255,255,255,0.07)" stroke-width="1.5"/>
  <ellipse cx="256" cy="256" rx="176" ry="169" stroke="rgba(232,230,227,0.08)" stroke-width="1.25"/>
  <ellipse cx="236" cy="272" rx="132" ry="98" fill="url(#nb-cloud-a)" opacity="0.88" filter="url(#nb-soft)"/>
  <ellipse cx="296" cy="232" rx="108" ry="82" fill="url(#nb-cloud-b)" opacity="0.72" filter="url(#nb-soft)"/>
  <circle cx="256" cy="246" r="76" fill="url(#nb-glow)"/>
  <circle cx="264" cy="238" r="20" fill="#ebe7fb"/>
  <circle cx="264" cy="238" r="9" fill="#ffffff" opacity="0.92"/>
  <circle cx="106" cy="146" r="3.5" fill="#e8e6e3" opacity="0.42"/>
  <circle cx="404" cy="128" r="2.5" fill="#e8e6e3" opacity="0.32"/>
  <circle cx="382" cy="372" r="2.25" fill="#c4b8f5" opacity="0.48"/>
  <path d="M150 358l3.8 7.6 7.6 1.1-5.7 4.9 1.5 7.6-6.8-3.6-6.8 3.6 1.5-7.6-5.7-4.9 7.6-1.1z" fill="#e8e6e3" opacity="0.28"/>
</svg>
